<svg xmlns="http://www.w3.org/2000/svg"  viewBox="0 0 100 100" width="200px" height="200px"><circle cx="13" cy="29" r="2" fill="#ee3e54"/><circle cx="77" cy="13" r="1" fill="#f1bc19"/><circle cx="50" cy="50" r="37" fill="#fce0a2"/><circle cx="83" cy="15" r="4" fill="#f1bc19"/><circle cx="87" cy="24" r="2" fill="#ee3e54"/><circle cx="81" cy="76" r="2" fill="#fbcd59"/><circle cx="15" cy="63" r="4" fill="#fbcd59"/><circle cx="25" cy="87" r="2" fill="#ee3e54"/><circle cx="18.5" cy="53.5" r="2.5" fill="#fff"/><circle cx="21" cy="67" r="1" fill="#f1bc19"/><circle cx="80" cy="34" r="1" fill="#fff"/><g><path fill="#f16869" d="M57.727,45.667c9.905,6.176,15.469-1.909,15.469-1.909L50.909,27.7 c-3.714,3.706-22.181,13.397-22.181,13.397l26.994,20.322l-2.006,1.615l-9.168-6.645c-8.667-6.176-15.82,1.812-15.82,1.812 S50.831,74.424,51.014,74.26c3.755-3.379,18.092-13.276,22.286-14.633L45.992,40.749l2.252-1.517L57.727,45.667z"/><path fill="none" stroke="#472b29" stroke-linecap="round" stroke-linejoin="round" stroke-miterlimit="10" stroke-width="1.4" d="M57.727,45.667c9.905,6.176,15.469-1.909,15.469-1.909L50.909,27.7c-3.714,3.706-22.181,13.397-22.181,13.397l26.994,20.322 l-2.006,1.615l-9.168-6.645c-8.667-6.176-15.82,1.812-15.82,1.812S50.831,74.424,51.014,74.26 c3.755-3.379,18.092-13.276,22.286-14.633L45.992,40.749l2.252-1.517L57.727,45.667z"/><path fill="none" stroke="#472b29" stroke-linecap="round" stroke-linejoin="round" stroke-miterlimit="10" d="M51.03,32.294 M59.647,54.634l2.458,1.699 M47.247,46.062l9.626,6.654 M59.725,42.605l-9.422-6.394c-0.621-0.422-1.34-0.633-2.059-0.633 c-0.715,0-1.43,0.209-2.049,0.626l-2.252,1.517c-1.002,0.675-1.605,1.8-1.613,3.006c-0.007,1.206,0.583,2.338,1.576,3.025 M65.139,42.461l2.024,1.459c-0.653,0.252-1.403,0.419-2.244,0.419c-0.827,0-1.697-0.159-2.605-0.473 M36.994,59.721 c-0.672-0.491-1.337-0.977-1.99-1.455c0.831-0.334,1.768-0.566,2.771-0.566 M41.806,63.228c-0.587-0.427-1.181-0.86-1.778-1.295 M50.798,69.713c-1.438-1.018-3.515-2.513-5.875-4.222 M37.774,57.7c1.556,0,3.076,0.544,4.622,1.645"/></g></svg>