<svg xmlns="http://www.w3.org/2000/svg"  viewBox="0 0 100 100" width="200px" height="200px" clip-rule="evenodd"><circle cx="13" cy="29" r="2" fill="#78a0cf"/><circle cx="77" cy="13" r="1" fill="#f1bc19"/><circle cx="50" cy="50" r="37" fill="#cee1f4"/><circle cx="83" cy="15" r="4" fill="#f1bc19"/><circle cx="87" cy="24" r="2" fill="#78a0cf"/><circle cx="81" cy="76" r="2" fill="#fbcd59"/><circle cx="15" cy="63" r="4" fill="#fbcd59"/><circle cx="25" cy="87" r="2" fill="#78a0cf"/><circle cx="18.5" cy="53.5" r="2.5" fill="#fff"/><circle cx="21" cy="67" r="1" fill="#f1bc19"/><circle cx="80" cy="34" r="1" fill="#fff"/><g><path fill="#e85654" d="M49.931,34.027c-17.647,0-31.952,7.229-31.952,16.144s14.305,16.144,31.952,16.144 s31.952-7.229,31.952-16.144S67.578,34.027,49.931,34.027z M49.835,62.721c-15.191,0-27.551-5.497-27.551-12.251 s12.359-12.249,27.55-12.249s27.55,5.494,27.55,12.249C77.385,57.225,65.026,62.721,49.835,62.721z"/><ellipse cx="49.884" cy="50.221" fill="none" stroke="#472b29" stroke-linecap="round" stroke-linejoin="round" stroke-miterlimit="10" stroke-width="1.4" rx="31.8" ry="16.3"/><path fill="none" stroke="#472b29" stroke-linecap="round" stroke-linejoin="round" stroke-miterlimit="10" d="M65.884,39.968 c7.249,2.261,12,6.013,12,10.252c0.001,6.892-12.56,12.501-27.999,12.501S21.884,57.113,21.884,50.22s12.561-12.499,28-12.499 c0.899,0,1.789,0.019,2.667,0.056"/><path fill="none" stroke="#472b29" stroke-linecap="round" stroke-linejoin="round" stroke-miterlimit="10" d="M57.789,38.241 c2.09,0.282,4.077,0.673,5.929,1.158"/><path fill="none" stroke="#472b29" stroke-linecap="round" stroke-linejoin="round" stroke-miterlimit="10" d="M54.495,37.895 c0.443,0.034,0.882,0.072,1.318,0.115"/><path fill="#e85654" fill-rule="evenodd" d="M47.549,43.63h0.49c0.171,0,0.263,0.13,0.263,0.295v13.48 c0,0.179,0.143,0.316,0.326,0.316l3.72-0.004c0.184,0,0.328-0.137,0.328-0.316V43.04c0-0.174-0.147-0.317-0.328-0.317 l-4.799,0.004c-0.047,0-0.047,0.044-0.047,0.077v0.75C47.502,43.586,47.502,43.63,47.549,43.63z" clip-rule="evenodd"/><path fill="#e85654" fill-rule="evenodd" d="M54.847,57.718h3.528c0.171,0,0.352-0.134,0.423-0.311 l3.01-9.306c0-0.002,0.035-0.13,0.147-0.13c0.108,0,0.143,0.129,0.145,0.13l3.042,9.306c0.072,0.181,0.25,0.311,0.424,0.311h3.527 c0.124,0,0.194-0.06,0.232-0.11c0.068-0.091,0.075-0.206,0.053-0.276l-4.91-14.4c-0.077-0.186-0.268-0.21-0.427-0.21h-5.702 c-0.041,0-0.08,0.037-0.08,0.077v0.75c0,0.039,0.04,0.077,0.08,0.077h0.485c0.179,0,0.301,0.104,0.301,0.259 c0,0.05-0.011,0.104-0.036,0.17l-4.529,13.278c-0.026,0.094-0.006,0.196,0.054,0.275C54.671,57.679,54.754,57.718,54.847,57.718z" clip-rule="evenodd"/><path fill="#e85654" fill-rule="evenodd" d="M32.364,43.625c0.169,0,0.303,0.13,0.303,0.295V57.4 c0,0.18,0.14,0.317,0.32,0.317h3.547c0.177,0,0.309-0.141,0.309-0.316v-5.67c0-0.124,0.068-0.195,0.171-0.195 c0.12,0,0.177,0.08,0.221,0.144c0.005,0.007,0.009,0.014,0.015,0.02l4.173,5.671c0.132,0.199,0.373,0.346,0.56,0.346h4.155 c0.098,0,0.205-0.069,0.256-0.164c0.054-0.102,0.041-0.219-0.038-0.329c-0.012-0.019-5.21-7.226-5.263-7.299 c-0.016-0.022-0.022-0.036-0.032-0.052c-0.011-0.02-0.022-0.044-0.026-0.065c-0.004-0.015-0.009-0.029-0.009-0.049 c0-0.061,0.031-0.122,0.063-0.189l0.004-0.009l4.364-6.386c0.056-0.089,0.056-0.206,0-0.304c-0.053-0.094-0.148-0.151-0.252-0.151 H41.26c-0.187,0-0.43,0.147-0.565,0.344l-3.445,4.755c-0.106,0.156-0.211,0.164-0.231,0.164h-0.004 c-0.096,0-0.171-0.062-0.171-0.159v-4.788c0-0.174-0.143-0.316-0.32-0.316h-4.546c-0.042,0-0.08,0.037-0.08,0.077v0.75 c0,0.04,0.038,0.077,0.08,0.077h0.387V43.625z" clip-rule="evenodd"/><path fill="none" stroke="#472b29" stroke-linecap="round" stroke-linejoin="round" stroke-miterlimit="10" d="M47.549,43.63h0.49c0.171,0,0.263,0.13,0.263,0.295v13.48c0,0.179,0.143,0.316,0.326,0.316l3.72-0.004 c0.184,0,0.328-0.137,0.328-0.316V43.04c0-0.174-0.147-0.317-0.328-0.317l-4.799,0.004c-0.047,0-0.047,0.044-0.047,0.077v0.75 C47.502,43.586,47.502,43.63,47.549,43.63z" clip-rule="evenodd"/><path fill="none" stroke="#472b29" stroke-linecap="round" stroke-linejoin="round" stroke-miterlimit="10" d="M54.847,57.718h3.528c0.171,0,0.352-0.134,0.423-0.311l3.01-9.306c0-0.002,0.035-0.13,0.147-0.13c0.108,0,0.143,0.129,0.145,0.13 l3.042,9.306c0.072,0.181,0.25,0.311,0.424,0.311h3.527c0.124,0,0.194-0.06,0.232-0.11c0.068-0.091,0.075-0.206,0.053-0.276 l-4.91-14.4c-0.077-0.186-0.268-0.21-0.427-0.21h-5.702c-0.041,0-0.08,0.037-0.08,0.077v0.75c0,0.039,0.04,0.077,0.08,0.077h0.485 c0.179,0,0.301,0.104,0.301,0.259c0,0.05-0.011,0.104-0.036,0.17l-4.529,13.278c-0.026,0.094-0.006,0.196,0.054,0.275 C54.671,57.679,54.754,57.718,54.847,57.718z" clip-rule="evenodd"/><path fill="none" stroke="#472b29" stroke-linecap="round" stroke-linejoin="round" stroke-miterlimit="10" d="M32.364,43.625c0.169,0,0.303,0.13,0.303,0.295V57.4c0,0.18,0.14,0.317,0.32,0.317h3.547c0.177,0,0.309-0.141,0.309-0.316v-5.67 c0-0.124,0.068-0.195,0.171-0.195c0.12,0,0.177,0.08,0.221,0.144c0.005,0.007,0.009,0.014,0.015,0.02l4.173,5.671 c0.132,0.199,0.373,0.346,0.56,0.346h4.155c0.098,0,0.205-0.069,0.256-0.164c0.054-0.102,0.041-0.219-0.038-0.329 c-0.012-0.019-5.21-7.226-5.263-7.299c-0.016-0.022-0.022-0.036-0.032-0.052c-0.011-0.02-0.022-0.044-0.026-0.065 c-0.004-0.015-0.009-0.029-0.009-0.049c0-0.061,0.031-0.122,0.063-0.189l0.004-0.009l4.364-6.386c0.056-0.089,0.056-0.206,0-0.304 c-0.053-0.094-0.148-0.151-0.252-0.151H41.26c-0.187,0-0.43,0.147-0.565,0.344l-3.445,4.755c-0.106,0.156-0.211,0.164-0.231,0.164 h-0.004c-0.096,0-0.171-0.062-0.171-0.159v-4.788c0-0.174-0.143-0.316-0.32-0.316h-4.546c-0.042,0-0.08,0.037-0.08,0.077v0.75 c0,0.04,0.038,0.077,0.08,0.077h0.387V43.625z" clip-rule="evenodd"/></g></svg>