<svg xmlns="http://www.w3.org/2000/svg"  viewBox="0 0 100 100" width="200px" height="200px" clip-rule="evenodd" baseProfile="basic"><circle cx="77" cy="13" r="1" fill="#f1bc19"/><circle cx="50" cy="50" r="37" fill="#e4e4f9"/><circle cx="83" cy="15" r="4" fill="#f1bc19"/><circle cx="87" cy="24" r="2" fill="#8889b9"/><circle cx="81.984" cy="76" r="2" fill="#8889b9"/><circle cx="22.945" cy="74.953" r="4" fill="#fbcd59"/><circle cx="23.039" cy="87.031" r="2" fill="#8889b9"/><circle cx="36.57" cy="77.586" r="2.5" fill="#fff"/><path fill="#5a5c70" fill-rule="evenodd" d="M75.226,29.985H44.738c-1.271,0.149-1.932,0.204-3.172,0.695 c-1.773,0.701-3.242,1.87-4.364,3.4c-0.271,0.37-0.527,0.775-0.785,1.156c-0.261,0.385-0.524,0.772-0.781,1.16 c-0.153,0.231,0.062,0.17,0.59,0.17c9.375,0,18.751,0,28.126,0c0.63,0,1.284,0.02,1.91-0.026c3.033-0.222,5.665-1.771,7.405-4.24 c0.267-0.379,0.521-0.775,0.783-1.158C74.711,30.761,74.978,30.374,75.226,29.985L75.226,29.985z" clip-rule="evenodd"/><path fill="#472b29" d="M75.226,29.985c-0.248,0.388-0.516,0.775-0.776,1.156c-0.261,0.384-0.516,0.78-0.783,1.158 c-1.741,2.469-4.372,4.018-7.405,4.24c-0.337,0.025-0.682,0.03-1.027,0.03c-0.296,0-0.593-0.004-0.884-0.004 c-9.375,0-18.751,0-28.126,0c-0.182,0-0.327,0.007-0.432,0.007c-0.2,0-0.258-0.026-0.158-0.177c0.257-0.388,0.52-0.775,0.781-1.16 c0.258-0.382,0.514-0.786,0.785-1.156c1.122-1.53,2.592-2.698,4.364-3.4c1.24-0.491,1.901-0.546,3.172-0.695H75.226 M75.226,28.585 H44.738c-0.055,0-0.109,0.003-0.163,0.01l-0.219,0.026c-1.185,0.138-1.968,0.229-3.305,0.758c-1.998,0.791-3.672,2.094-4.978,3.873 c-0.198,0.27-0.388,0.556-0.576,0.84l-0.239,0.359l-0.103,0.151c-0.23,0.339-0.46,0.679-0.686,1.02 c-0.475,0.717-0.235,1.336-0.109,1.57c0.157,0.292,0.551,0.781,1.434,0.781l0.194-0.003c0.069-0.002,0.148-0.004,0.238-0.004 h28.126l0.428,0.002l0.456,0.002c0.309,0,0.716-0.004,1.129-0.034c3.429-0.251,6.429-1.966,8.447-4.83 c0.17-0.241,0.335-0.489,0.5-0.737c0.098-0.147,0.196-0.294,0.295-0.439l0.117-0.172c0.23-0.337,0.463-0.677,0.681-1.019 c0.276-0.431,0.294-0.978,0.049-1.427C76.209,28.864,75.738,28.585,75.226,28.585L75.226,28.585z"/><path fill="#472b29" d="M71.362,32.235H51.531c-0.138,0-0.25-0.112-0.25-0.25s0.112-0.25,0.25-0.25h19.831 c0.138,0,0.25,0.112,0.25,0.25S71.5,32.235,71.362,32.235z"/><path fill="#472b29" d="M50.078,32.235h-2.203c-0.138,0-0.25-0.112-0.25-0.25s0.112-0.25,0.25-0.25h2.203 c0.138,0,0.25,0.112,0.25,0.25S50.216,32.235,50.078,32.235z"/><path fill="#5a5c70" fill-rule="evenodd" d="M39.383,34.566c0.819-0.902,1.798-1.583,2.919-2.026 c0.922-0.365,1.369-0.417,2.447-0.542l0.105-0.012h1.099" clip-rule="evenodd"/><path fill="#472b29" d="M39.383,34.816c-0.06,0-0.12-0.021-0.168-0.065c-0.103-0.093-0.11-0.251-0.017-0.353 c0.845-0.931,1.858-1.634,3.012-2.091c0.954-0.377,1.441-0.434,2.51-0.559l0.105-0.012l1.128-0.001c0.138,0,0.25,0.112,0.25,0.25 s-0.112,0.25-0.25,0.25l-1.175,0.011c-1.055,0.123-1.491,0.173-2.384,0.526c-1.082,0.428-2.033,1.088-2.826,1.962 C39.519,34.789,39.451,34.816,39.383,34.816z"/><path fill="#5a5c70" fill-rule="evenodd" d="M32.606,40.886c-1.92,2.793-3.776,5.638-5.692,8.434 c-0.48,0.7-0.946,1.41-1.424,2.111c-0.12,0.176-0.239,0.35-0.356,0.528c-0.04,0.061-0.35,0.452-0.286,0.496 c0.057,0.039,1.361-0.143,1.536-0.165l7.856-0.965c0.263-0.032,0.526-0.065,0.789-0.097c0.3-0.037,0.464,0.015,0.636-0.247 c0.465-0.708,0.953-1.406,1.424-2.111c0.943-1.411,1.904-2.811,2.849-4.221c0.472-0.705,0.957-1.403,1.425-2.111 c0.119-0.179-0.117-0.164-0.496-0.23l-5.269-0.918c-0.502-0.088-1.004-0.175-1.505-0.262 C33.789,41.077,32.843,40.897,32.606,40.886L32.606,40.886z" clip-rule="evenodd"/><path fill="#472b29" d="M32.606,40.886c0.237,0.012,1.183,0.191,1.487,0.244c0.502,0.087,1.004,0.174,1.505,0.262 l5.269,0.918c0.379,0.066,0.615,0.051,0.496,0.23c-0.468,0.708-0.953,1.406-1.425,2.111c-0.945,1.41-1.906,2.81-2.849,4.221 c-0.471,0.705-0.96,1.403-1.424,2.111c-0.172,0.262-0.336,0.21-0.636,0.247c-0.263,0.032-0.526,0.065-0.789,0.097l-7.856,0.965 c-0.158,0.019-1.239,0.17-1.487,0.17c-0.026,0-0.043-0.002-0.049-0.005c-0.065-0.044,0.245-0.435,0.286-0.496 c0.117-0.178,0.236-0.352,0.356-0.528c0.478-0.701,0.945-1.411,1.424-2.111C28.83,46.523,30.686,43.679,32.606,40.886 M32.606,39.486c-0.46,0-0.892,0.226-1.154,0.607c-0.996,1.449-1.975,2.913-2.954,4.376c-0.908,1.357-1.816,2.714-2.738,4.061 c-0.259,0.378-0.514,0.758-0.769,1.139c-0.218,0.326-0.436,0.651-0.657,0.975c-0.124,0.182-0.247,0.362-0.368,0.546 c-0.262,0.353-0.617,0.835-0.505,1.489c0.064,0.375,0.287,0.723,0.602,0.936c0.242,0.164,0.523,0.247,0.835,0.247 c0.221,0,0.6-0.04,1.503-0.16l0.155-0.02l7.857-0.965l0.789-0.097l0.092-0.008c0.28-0.019,1.025-0.071,1.543-0.86 c0.265-0.404,0.538-0.805,0.812-1.206c0.203-0.298,0.406-0.596,0.606-0.896c0.493-0.737,0.991-1.472,1.489-2.206 c0.454-0.67,0.909-1.341,1.36-2.013c0.197-0.294,0.396-0.586,0.595-0.879c0.28-0.412,0.56-0.824,0.835-1.239 c0.293-0.443,0.344-0.985,0.135-1.449c-0.341-0.758-1.079-0.863-1.393-0.908c-0.05-0.007-0.105-0.015-0.165-0.025l-5.27-0.918 l-1.506-0.262l-0.261-0.047c-0.774-0.14-1.16-0.205-1.397-0.216C32.652,39.486,32.629,39.486,32.606,39.486L32.606,39.486z"/><path fill="#5a5c70" fill-rule="evenodd" d="M26.71,38.02c-0.253,0.358-0.25,0.326,0.327,0.427 c0.345,0.06,0.689,0.12,1.034,0.18l6.201,1.077c2.756,0.479,5.512,0.958,8.268,1.437c0.345,0.06,0.689,0.12,1.034,0.18 c0.386,0.067,0.285,0.096-0.025,0.563c-0.957,1.445-1.965,2.904-2.932,4.347c-0.81,1.208-0.917,1.158-0.303,1.082l5.404-0.662 c0.494-0.061,0.434-0.128,0.698-0.515c1.637-2.394,3.243-4.836,4.879-7.234c0.164-0.241,0.327-0.482,0.489-0.725 c0.128-0.19-0.085-0.163-0.22-0.163l-22.442,0C28.323,38.013,27.506,37.996,26.71,38.02L26.71,38.02z" clip-rule="evenodd"/><path fill="#472b29" d="M27.691,38.007c0.478,0,0.957,0.006,1.43,0.006l22.442,0c0.03,0,0.064-0.001,0.097-0.001 c0.116,0,0.223,0.016,0.123,0.164c-0.162,0.242-0.325,0.484-0.489,0.725c-1.636,2.398-3.242,4.841-4.879,7.234 c-0.264,0.386-0.204,0.454-0.698,0.515l-5.404,0.662c-0.14,0.017-0.242,0.033-0.307,0.033c-0.221,0-0.015-0.183,0.611-1.115 c0.967-1.443,1.975-2.902,2.932-4.346c0.31-0.467,0.41-0.497,0.025-0.563c-0.345-0.059-0.689-0.12-1.034-0.18 c-2.756-0.479-5.512-0.958-8.268-1.437l-6.201-1.077c-0.345-0.06-0.689-0.12-1.034-0.18c-0.578-0.1-0.58-0.069-0.327-0.427 C27.034,38.01,27.362,38.007,27.691,38.007 M27.691,36.607c-0.343,0-0.684,0.003-1.023,0.013c-0.44,0.013-0.848,0.232-1.102,0.591 c-0.201,0.283-0.622,0.879-0.306,1.641c0.318,0.767,1.038,0.889,1.425,0.954l0.113,0.019l0.562,0.098l0.472,0.082l6.201,1.077 l7.496,1.303c-0.281,0.416-0.564,0.833-0.847,1.249c-0.412,0.607-0.823,1.212-1.228,1.815c-0.157,0.235-0.287,0.42-0.389,0.566 c-0.338,0.483-0.801,1.144-0.382,1.949c0.254,0.489,0.749,0.78,1.323,0.78c0.091,0,0.222-0.011,0.392-0.033l0.086-0.011 l5.403-0.662c0.778-0.096,1.211-0.361,1.597-0.98c0.023-0.038,0.051-0.082,0.086-0.133c0.844-1.234,1.68-2.481,2.516-3.728 c0.786-1.172,1.572-2.345,2.365-3.507c0.167-0.244,0.331-0.489,0.495-0.734c0.327-0.488,0.367-1.071,0.106-1.56 c-0.126-0.236-0.513-0.785-1.392-0.785l-0.08,0.001l-22.458,0l-0.702-0.003L27.691,36.607L27.691,36.607z"/><path fill="#5a5c70" fill-rule="evenodd" d="M53.627,38.026c-0.477,0.685-0.933,1.392-1.403,2.083 c-0.469,0.689-0.946,1.383-1.404,2.078c-0.268,0.407-2.781,4.078-2.776,4.153c0.065,0.046,1.932-0.211,2.151-0.238l3.824-0.471 c0.273-0.033,0.24-0.014,0.391-0.234c1.001-1.464,1.987-2.967,2.987-4.43l1.487-2.205c0.065-0.098,0.489-0.664,0.459-0.73 c-0.039-0.04-4.283-0.018-5.007-0.018C54.118,38.013,53.837,37.997,53.627,38.026L53.627,38.026z" clip-rule="evenodd"/><path fill="#472b29" d="M57.248,38.008c1.096,0,2.076,0.005,2.094,0.024c0.029,0.066-0.395,0.632-0.459,0.73l-1.487,2.205 c-0.999,1.464-1.986,2.966-2.987,4.43c-0.151,0.221-0.118,0.201-0.391,0.234l-3.824,0.471c-0.202,0.025-1.792,0.243-2.101,0.243 c-0.027,0-0.045-0.002-0.05-0.005c-0.006-0.075,2.508-3.746,2.776-4.153c0.458-0.695,0.935-1.39,1.404-2.078 c0.47-0.69,0.926-1.398,1.403-2.083c0.099-0.014,0.215-0.018,0.332-0.018c0.13,0,0.262,0.005,0.377,0.005 C54.714,38.013,56.051,38.008,57.248,38.008 M57.248,36.608c-0.768,0-1.594,0.002-2.188,0.004l-0.725,0.002l-0.152-0.002 l-0.225-0.003c-0.207,0-0.374,0.01-0.525,0.031c-0.386,0.054-0.732,0.266-0.955,0.586c-0.284,0.407-0.559,0.821-0.835,1.236 c-0.191,0.287-0.382,0.575-0.576,0.859l-0.234,0.343c-0.397,0.582-0.796,1.167-1.182,1.753c-0.072,0.11-0.312,0.462-0.621,0.917 c-2.423,3.569-2.423,3.569-2.382,4.111c0.031,0.416,0.247,0.796,0.587,1.037c0.246,0.174,0.535,0.263,0.859,0.263 c0.259,0,0.78-0.057,2.064-0.227l0.207-0.027l3.824-0.471c0.647-0.076,1.012-0.297,1.349-0.794 c0.539-0.788,1.046-1.546,1.554-2.304c0.486-0.725,0.971-1.451,1.46-2.166l1.491-2.211l0.057-0.081 c0.447-0.626,0.869-1.217,0.521-2.001c-0.068-0.153-0.162-0.292-0.279-0.411C59.907,36.608,59.907,36.608,57.248,36.608 L57.248,36.608z"/><path fill="#5a5c70" fill-rule="evenodd" d="M56.188,45.332l0.048,0.022 c0.645-0.046,1.35-0.161,1.998-0.241c0.667-0.082,1.339-0.158,2.005-0.248c1.209-0.163,2.121-0.664,2.968-1.521 c0.359-0.363,0.659-0.864,0.946-1.29l2.268-3.364c0.06-0.089,0.436-0.6,0.409-0.66c-0.033-0.034-4.811-0.033-5.58-0.019 c-0.177,0.003-0.204,0.117-0.296,0.254l-3.859,5.724C56.799,44.43,56.499,44.908,56.188,45.332L56.188,45.332z" clip-rule="evenodd"/><path fill="#472b29" d="M63.562,38.004c1.539,0,3.247,0.008,3.267,0.028c0.027,0.06-0.349,0.571-0.409,0.66l-2.268,3.364 c-0.287,0.426-0.587,0.927-0.946,1.29c-0.847,0.857-1.759,1.358-2.968,1.521c-0.666,0.09-1.338,0.166-2.005,0.248 c-0.648,0.08-1.353,0.195-1.997,0.241l-0.048-0.022c0.31-0.424,0.611-0.902,0.906-1.341l3.859-5.724 c0.093-0.137,0.119-0.251,0.296-0.254C61.56,38.008,62.522,38.004,63.562,38.004 M63.562,36.604c-1.051,0-2.024,0.004-2.337,0.009 c-0.418,0.007-1.005,0.162-1.423,0.855l-3.869,5.741c-0.095,0.141-0.189,0.284-0.284,0.428c-0.194,0.294-0.39,0.594-0.591,0.869 c-0.248,0.339-0.331,0.773-0.225,1.18c0.106,0.407,0.389,0.745,0.772,0.92l0.048,0.022c0.183,0.084,0.382,0.127,0.583,0.127 c0.033,0,0.067-0.001,0.1-0.004c0.489-0.035,0.987-0.103,1.469-0.168c0.203-0.028,0.404-0.055,0.6-0.079l0.639-0.077 c0.461-0.055,0.923-0.111,1.381-0.172c1.475-0.199,2.675-0.81,3.776-1.923c0.387-0.391,0.686-0.847,0.951-1.249l0.161-0.243 l2.268-3.363l0.039-0.055c0.412-0.582,0.838-1.185,0.484-1.965c-0.068-0.149-0.161-0.286-0.276-0.403 C67.39,36.604,67.39,36.604,63.562,36.604L63.562,36.604z"/><polygon fill-rule="evenodd" points="56.237,45.354 56.188,45.332 56.175,45.362 56.237,45.354" clip-rule="evenodd"/><g><path fill="#5a5c70" fill-rule="evenodd" d="M51.44,64.181c0.263,0.003,2.482,0.011,2.482,0.011 l-2.71-2.156c0.752-0.111,1.43-0.477,1.841-1.131c0.441-0.704,0.471-1.654,0.087-2.389c-0.35-0.67-1.011-1.106-1.743-1.255 c-0.453-0.092-0.964-0.063-1.428-0.063l-4.488,0c-0.302-0.001-0.247,0.051-0.247,0.503l0.016,6.468l1.732-0.003L47.036,59 c0-0.097-0.029-0.255,0.097-0.285c0.08-0.019,3.134-0.012,3.365,0.001c0.382,0.021,0.815,0.11,1,0.488 c0.162,0.33,0.151,0.932-0.074,1.233c-0.247,0.332-0.733,0.37-1.112,0.377c-0.285,0.005-2.884-0.016-2.934,0.018 C47.329,60.865,50.332,63.293,51.44,64.181L51.44,64.181z" clip-rule="evenodd"/><path fill="#472b29" d="M54.641,64.444l-0.72-0.003c0,0-2.22-0.008-2.483-0.011l-0.086-0.001l-0.067-0.054 c-2.819-2.257-3.729-3.016-4.021-3.318l-0.033,3.356l-2.249,0.004v-6.893c-0.004-0.2-0.007-0.345,0.108-0.462 c0.115-0.118,0.28-0.117,0.393-0.117l4.758-0.002c0.402-0.004,0.816-0.01,1.207,0.07c0.848,0.173,1.545,0.678,1.915,1.385 c0.43,0.823,0.392,1.858-0.097,2.638c-0.334,0.533-0.854,0.922-1.492,1.125L54.641,64.444z M51.528,63.931 c0.289,0.002,1.08,0.005,1.674,0.007l-2.597-2.065l0.569-0.084c0.731-0.109,1.323-0.47,1.666-1.017 c0.39-0.622,0.421-1.482,0.078-2.141c-0.299-0.573-0.872-0.983-1.571-1.126c-0.339-0.069-0.726-0.063-1.101-0.06l-0.277,0.002 H45.48c0,0,0,0-0.001,0c0,0.022,0.001,0.045,0.001,0.068l0.002,0.185l0.016,6.218l1.235-0.002l0.051-4.918 c-0.012-0.312,0.085-0.477,0.29-0.525c0.154-0.036,3.409-0.007,3.436-0.005c0.23,0.013,0.929,0.052,1.211,0.627 c0.19,0.389,0.197,1.097-0.098,1.493c-0.303,0.405-0.831,0.469-1.308,0.478c-0.08,0.001-0.346,0-0.685,0 c-0.417-0.001-1.119-0.004-1.623,0C48.802,61.73,50.478,63.089,51.528,63.931z M47.284,58.959l-0.017,1.647 c0.092-0.045,0.331-0.051,2.365-0.042c0.334,0.001,0.595,0.002,0.675,0c0.355-0.006,0.743-0.044,0.916-0.276 c0.154-0.207,0.18-0.708,0.049-0.974c-0.104-0.213-0.355-0.324-0.79-0.348C50.244,58.953,47.865,58.949,47.284,58.959z"/><path fill="#5a5c70" fill-rule="evenodd" d="M36.031,58.626c1.348-0.072,2.769,0.111,2.941,1.716 c0.065,0.61-0.028,1.386-0.482,1.839c-0.428,0.428-1.151,0.553-1.732,0.586c-1.353,0.077-2.767-0.12-2.945-1.722 c-0.069-0.619,0.019-1.374,0.475-1.836C34.725,58.766,35.433,58.658,36.031,58.626L36.031,58.626z M35.939,64.282 c0.862,0.047,1.745-0.029,2.562-0.269c1.664-0.488,2.344-1.845,2.279-3.539c-0.102-2.645-2.04-3.371-4.381-3.379 c-2.345-0.008-4.295,0.715-4.396,3.364c-0.085,2.206,0.995,3.42,3.052,3.731C35.345,64.234,35.641,64.265,35.939,64.282z" clip-rule="evenodd"/><path fill="#472b29" d="M36.428,64.545c-0.166,0-0.333-0.004-0.502-0.014l0,0c-0.303-0.017-0.609-0.048-0.908-0.094 c-2.222-0.336-3.351-1.715-3.264-3.988c0.092-2.403,1.667-3.627,4.647-3.604c2.98,0.01,4.538,1.228,4.63,3.619 c0.075,1.956-0.798,3.302-2.458,3.788C37.911,64.447,37.191,64.545,36.428,64.545z M35.953,64.032 c0.894,0.048,1.728-0.039,2.479-0.259c1.819-0.533,2.146-2.083,2.099-3.289c-0.082-2.132-1.395-3.129-4.132-3.139 c-0.013,0-0.026,0-0.04,0c-2.719,0-4.024,0.993-4.106,3.124c-0.078,2.037,0.851,3.173,2.839,3.474 C35.376,63.986,35.666,64.016,35.953,64.032L35.953,64.032z M36.265,63.035c-0.952,0-2.507-0.219-2.701-1.961 c-0.044-0.401-0.081-1.404,0.545-2.039c0.519-0.525,1.337-0.627,1.908-0.658h0c1.272-0.07,3.001,0.058,3.203,1.939 c0.034,0.315,0.094,1.395-0.554,2.042c-0.388,0.388-1.025,0.609-1.895,0.659C36.643,63.025,36.468,63.035,36.265,63.035z M36.044,58.875c-0.488,0.026-1.183,0.108-1.579,0.51c-0.329,0.334-0.48,0.945-0.404,1.633c0.128,1.151,0.933,1.603,2.682,1.5 c0.743-0.042,1.271-0.215,1.569-0.514c0.39-0.39,0.468-1.101,0.41-1.636C38.601,59.228,37.804,58.786,36.044,58.875L36.044,58.875 z"/><path fill="#5a5c70" fill-rule="evenodd" d="M73.22,61.347l1.408-2.794l1.393,2.794H73.22L73.22,61.347z M73.396,57.215c0,0-1.192,2.326-1.791,3.476c-0.15,0.287-1.766,3.474-1.766,3.474l2.411,0.015l0.767-1.476l3.535,0l0.783,1.488 l2.06-0.028l-3.586-6.951L73.396,57.215L73.396,57.215z" clip-rule="evenodd"/><path fill="#472b29" d="M77.336,64.441c-0.093,0-0.178-0.051-0.221-0.134l-0.713-1.354h-3.233l-0.697,1.341 c-0.043,0.084-0.113,0.159-0.223,0.135l-2.411-0.015c-0.087,0-0.167-0.046-0.212-0.12c-0.045-0.074-0.049-0.166-0.01-0.244 c0,0,1.618-3.188,1.768-3.476c0.599-1.15,1.79-3.475,1.79-3.475c0.043-0.083,0.129-0.136,0.222-0.136l2.413-0.002c0,0,0,0,0,0 c0.094,0,0.179,0.052,0.222,0.135l3.586,6.951c0.04,0.077,0.037,0.169-0.008,0.243c-0.044,0.075-0.125,0.121-0.211,0.122 l-2.06,0.028C77.338,64.441,77.337,64.441,77.336,64.441z M73.017,62.454h3.536c0.093,0,0.178,0.051,0.221,0.134l0.712,1.352 l1.503-0.021l-3.332-6.457l-2.108,0.002c-0.263,0.513-1.209,2.357-1.722,3.342c-0.118,0.227-1.154,2.269-1.582,3.111l1.854,0.011 l0.697-1.34C72.838,62.505,72.924,62.454,73.017,62.454z M76.021,61.597H73.22c-0.087,0-0.167-0.045-0.213-0.119 c-0.045-0.074-0.049-0.167-0.01-0.244l1.408-2.795c0.042-0.084,0.129-0.138,0.223-0.138h0c0.095,0,0.181,0.054,0.223,0.139 l1.393,2.795c0.039,0.077,0.035,0.169-0.011,0.243C76.188,61.552,76.107,61.597,76.021,61.597z M73.625,61.097h1.992l-0.99-1.987 L73.625,61.097z"/><g><path fill="#5a5c70" fill-rule="evenodd" d="M58,64.169l7.888-0.001v-1.47l-4.445-0.044 c0.254-0.268,4.583-5.404,4.574-5.442c-0.081-0.035-5.378-0.014-6.534-0.014c-0.626,0-0.409-0.127-1.02,0.782 c-0.064,0.095-0.454,0.713-0.454,0.713l4.546,0.032C62.554,58.724,58.092,64.022,58,64.169L58,64.169z" clip-rule="evenodd"/><path fill="#472b29" d="M58,64.419c-0.091,0-0.175-0.049-0.219-0.129s-0.042-0.177,0.007-0.254 c0.085-0.136,2.926-3.515,4.232-5.066l-4.014-0.028c-0.091,0-0.174-0.05-0.217-0.13c-0.043-0.08-0.041-0.177,0.008-0.254 c0,0,0.395-0.624,0.459-0.719c0.107-0.159,0.188-0.287,0.253-0.388c0.281-0.439,0.337-0.525,0.782-0.507l0.192,0.003l1.176-0.002 c5.344-0.012,5.376,0.002,5.458,0.038c0.072,0.032,0.125,0.096,0.144,0.173c0.054,0.235-3.17,4.022-4.272,5.292h3.902 c0.137,0.001,0.248,0.113,0.248,0.25v1.47c0,0.138-0.112,0.25-0.25,0.25L58,64.419z M58.46,58.445l4.096,0.029 c0.097,0,0.185,0.057,0.225,0.146c0.041,0.088,0.026,0.191-0.036,0.266c-1.425,1.692-3.444,4.095-4.221,5.034l7.113-0.001v-0.972 l-4.197-0.042c-0.1-0.001-0.189-0.061-0.228-0.152c-0.039-0.091-0.02-0.197,0.048-0.27c0.236-0.25,3.268-3.85,4.246-5.034 c-1.041-0.01-3.52-0.005-4.847-0.002l-1.177,0.002c-0.082,0-0.15-0.002-0.208-0.004c-0.064-0.002-0.138-0.005-0.158,0.001 c-0.022,0.018-0.103,0.143-0.188,0.276c-0.067,0.104-0.15,0.234-0.26,0.398C58.642,58.16,58.552,58.3,58.46,58.445z"/></g><g><path fill="#5a5c70" fill-rule="evenodd" d="M20.786,64.174l1.785-0.006l0.015-2.192l4.946,0.005v-1.478 l-4.945-0.066l-0.001-1.753c0,0,4.559,0.012,5.233,0.016l0.999-1.527l-8.048-0.007L20.786,64.174L20.786,64.174z" clip-rule="evenodd"/><path fill="#472b29" d="M20.786,64.424c-0.066,0-0.129-0.026-0.176-0.073c-0.047-0.047-0.074-0.11-0.074-0.177v-7.008 c0-0.066,0.01-0.13,0.057-0.177s0.11-0.073,0.177-0.073l0,0l8.048,0.007c0.092,0,0.176,0.05,0.22,0.131 c0.044,0.081,0.04,0.179-0.011,0.255l-0.999,1.527c-0.046,0.071-0.125,0.113-0.209,0.113c0,0-0.001,0-0.002,0 c-0.579-0.004-4.017-0.013-4.981-0.016l0.001,1.256l4.698,0.063c0.137,0.002,0.247,0.113,0.247,0.25v1.478 c0,0.066-0.026,0.13-0.073,0.177s-0.11,0.073-0.177,0.073l0,0l-4.697-0.005l-0.013,1.944c-0.001,0.137-0.112,0.248-0.249,0.249 L20.786,64.424C20.786,64.424,20.786,64.424,20.786,64.424z M21.02,57.416l0.015,6.507l1.288-0.004l0.013-1.945 c0.001-0.138,0.113-0.249,0.25-0.249c0,0,0,0,0,0l4.695,0.005V60.75l-4.698-0.063c-0.137-0.002-0.247-0.113-0.247-0.25 l-0.001-1.753c0-0.066,0.026-0.13,0.073-0.177s0.11-0.073,0.177-0.073h0c0,0,4.095,0.011,5.098,0.016l0.672-1.026L21.02,57.416z"/></g><g><path fill="#5a5c70" fill-rule="evenodd" d="M51.188,62.059c0.002,0.003,0.009-0.009,0.012-0.013 c0.003-0.003,0.007-0.008,0.012-0.012C51.212,62.035,51.186,62.056,51.188,62.059z" clip-rule="evenodd"/></g></g><circle cx="15.977" cy="24.102" r="2" fill="#f1bc19"/><g><line x1="30.189" x2="29.406" y1="48.35" y2="49.531" fill="#5a5c70" fill-rule="evenodd" clip-rule="evenodd"/><path fill="#472b29" d="M29.406,49.781c-0.048,0-0.096-0.013-0.138-0.042c-0.115-0.076-0.146-0.231-0.07-0.347l0.782-1.182 c0.077-0.115,0.232-0.146,0.347-0.07c0.115,0.076,0.146,0.231,0.07,0.347l-0.782,1.182C29.566,49.742,29.487,49.781,29.406,49.781z"/></g><g><line x1="33.125" x2="31.029" y1="43.916" y2="47.082" fill="#5a5c70" fill-rule="evenodd" clip-rule="evenodd"/><path fill="#472b29" d="M31.028,47.332c-0.048,0-0.096-0.014-0.138-0.042c-0.115-0.076-0.146-0.231-0.07-0.347l2.096-3.165 c0.077-0.115,0.232-0.145,0.347-0.07c0.115,0.076,0.146,0.231,0.07,0.347l-2.096,3.165C31.188,47.292,31.109,47.332,31.028,47.332z"/></g></svg>